<?xml version="1.0" encoding="utf-8" ?><svg xmlns="http://www.w3.org/2000/svg" xmlns:xlink="http://www.w3.org/1999/xlink" width="2048" height="2048" viewBox="0 0 2048 2048"><path fill="white" d="M0 0L2048 0L2048 2048L0 2048L0 0Z"/><path fill="#0C090B" d="M357.721 1147.41C381.263 1145.88 402.114 1147.19 425.169 1152.79C485.4 1167.35 537.352 1205.3 569.533 1258.25C583.884 1281.9 604.822 1330.12 598.93 1359.37C596.585 1371.01 586.837 1377.9 577.2 1383.42C579.446 1384.49 581.641 1385.65 583.779 1386.92C592.192 1391.9 598.152 1400.16 600.23 1409.72C606.379 1439.18 580.375 1498.06 562.796 1522.34C523.768 1576.25 475.674 1606.18 410.908 1617.71L409.577 1617.92C396.292 1620.12 383.434 1619.39 372.482 1621.3L370.971 1624.21C364.878 1625.28 353.16 1624.78 346.707 1624.8L300.387 1624.89L246.567 1624.92C236.312 1624.93 225.1 1625.41 214.938 1624.12C179.878 1619.65 152.051 1588.42 149.926 1553.36C148.66 1522.66 149.235 1491.63 149.48 1460.86C149.722 1430.64 148.838 1399.62 149.73 1369.49C151.217 1319.27 171.631 1268.62 203.551 1230.02C242.936 1182.4 296.047 1153.44 357.721 1147.41Z"/><path fill="#0EB27E" d="M372.033 1220.59C417.502 1221.56 457.332 1239.12 488.929 1271.97C507.137 1291.1 519.964 1314.7 526.111 1340.39C531.442 1362.81 529.696 1372.42 553.23 1383.79C525.618 1398.78 532.568 1414.83 524.394 1440.69C512.88 1477.12 485.925 1508.19 453.033 1527.19C426.454 1542.54 402.188 1546.95 372.043 1547.55C371.947 1540.18 371.497 1530.13 372.384 1523.05C374.135 1521.47 373.221 1521.73 374.852 1521.62C372.353 1520.98 373.411 1521.61 371.88 1519.3L371.84 1462.29C372.635 1461.99 377.323 1460.4 377.714 1460.02C374.659 1459.91 372.812 1459.9 369.851 1458.9C329.949 1457.74 298.298 1424.89 298.612 1384.97C298.927 1345.05 331.092 1312.71 371.008 1312.17L372.732 1309.39C371.099 1304.25 371.709 1259.56 372.248 1252.25C374.645 1250.63 378.347 1250.85 381.436 1250.65C375.817 1250.08 375.997 1251.07 372.841 1248.01C370.196 1240.1 372.149 1230.11 372.033 1220.59Z"/><path fill="white" d="M371.008 1312.17C397.597 1311.81 422.3 1325.87 435.578 1348.91C448.856 1371.95 448.632 1400.37 434.992 1423.19C421.353 1446.02 396.431 1459.68 369.851 1458.9C329.949 1457.74 298.298 1424.89 298.612 1384.97C298.927 1345.05 331.092 1312.71 371.008 1312.17Z"/><path fill="#0C090B" d="M365.77 1344.78C380.419 1342.67 395.072 1348.6 404.13 1360.3C413.187 1372.01 415.248 1387.68 409.525 1401.33C403.802 1414.98 391.18 1424.5 376.483 1426.24C354.149 1428.9 333.832 1413.1 330.9 1390.8C327.967 1368.5 343.509 1347.99 365.77 1344.78Z"/><path fill="white" d="M372.033 1220.59C417.502 1221.56 457.332 1239.12 488.929 1271.97C507.137 1291.1 519.964 1314.7 526.111 1340.39C531.442 1362.81 529.696 1372.42 553.23 1383.79C525.618 1398.78 532.568 1414.83 524.394 1440.69C512.88 1477.12 485.925 1508.19 453.033 1527.19C426.454 1542.54 402.188 1546.95 372.043 1547.55C371.947 1540.18 371.497 1530.13 372.384 1523.05C374.135 1521.47 373.221 1521.73 374.852 1521.62C405.104 1519.93 431.105 1511.01 454.996 1491.87C483.515 1468.97 501.667 1435.61 505.39 1399.23C508.842 1363.02 497.618 1326.95 474.235 1299.09C450.476 1270.62 418.209 1254.15 381.436 1250.65C375.817 1250.08 375.997 1251.07 372.841 1248.01C370.196 1240.1 372.149 1230.11 372.033 1220.59Z"/><path fill="#01170E" d="M381.436 1250.65C418.209 1254.15 450.476 1270.62 474.235 1299.09C497.618 1326.95 508.842 1363.02 505.39 1399.23C501.667 1435.61 483.515 1468.97 454.996 1491.87C431.105 1511.01 405.104 1519.93 374.852 1521.62C372.353 1520.98 373.411 1521.61 371.88 1519.3C399.507 1516.92 418.909 1512.19 442.793 1496.78C472.535 1477.07 492.591 1447.55 500.15 1412.83C515.086 1344.22 471.644 1276.32 404.644 1257.9C393.859 1254.93 383.162 1254.35 372.248 1252.25C374.645 1250.63 378.347 1250.85 381.436 1250.65Z"/><path fill="#01170E" d="M372.732 1309.39C386.087 1307.18 404.891 1315.14 415.685 1322.76C432.639 1334.53 444.043 1352.73 447.252 1373.12C450.487 1393.53 445.52 1414.39 433.434 1431.15C419.81 1449.76 395.267 1463.62 371.84 1462.29C372.635 1461.99 377.323 1460.4 377.714 1460.02C374.659 1459.91 372.812 1459.9 369.851 1458.9C396.431 1459.68 421.353 1446.02 434.992 1423.19C448.632 1400.37 448.856 1371.95 435.578 1348.91C422.3 1325.87 397.597 1311.81 371.008 1312.17L372.732 1309.39Z"/><path fill="white" d="M371.862 1149.93C423.652 1149.73 473.921 1167.44 514.145 1200.06C557.47 1234.51 588.934 1286.45 596.635 1342.09C598.429 1355.05 595.61 1362.9 587.744 1372.61C581.357 1378.05 572.509 1382.67 563.739 1381.89C527.574 1379.45 533.807 1345.27 523.375 1320.17C497.238 1257.29 440.353 1219.65 372.039 1217.17L371.862 1149.93Z"/><path fill="#EF844B" d="M561.382 1385.38C577.746 1384.83 595.881 1393.11 597.165 1411.23C599.655 1446.39 580.885 1490.32 561.567 1518.64C524.085 1573.57 473.268 1602.82 408.767 1615.09C395.279 1616.99 385.561 1617.41 371.952 1617.31L371.972 1550.47C377.851 1550.4 383.859 1550.35 389.732 1549.95C456.506 1545.41 520.15 1491.22 531.404 1424.64C535.12 1402.65 537.956 1391.61 561.382 1385.38Z"/><path fill="#0C090B" d="M342.091 312.386C358.795 311.053 367.935 314.858 377.75 328.465C392.857 310.482 406.118 310.151 427.945 314.983C443.894 318.514 457.57 323.414 472.313 330.472C529.133 357.853 572.759 406.67 593.607 466.198C604.883 498.941 610.249 530.381 569.743 544.203C574.199 545.947 578.697 547.746 582.67 550.464C590.807 555.967 596.433 564.469 598.317 574.11C603.428 601.407 578.122 653.554 562.234 675.914C525.461 727.669 475.334 761.758 412.684 772.723C396.637 775.255 388.627 772.066 377.884 760.355C360.972 780.72 343.342 776.58 320.257 771.278C261.509 757.298 210.804 720.378 179.461 668.76C164.833 645.172 142.281 595.185 147.866 565.812C150.124 553.932 159.971 546.161 170.033 540.459C139.221 524.829 145.819 499.979 153.456 472.109C160.88 445.017 175.415 418.505 192.761 396.51C229.253 349.591 283.052 319.284 342.091 312.386Z"/><path fill="white" d="M362.19 403.961C442.777 397.365 513.483 457.276 520.206 537.853C526.928 618.43 467.127 689.23 386.561 696.078C305.816 702.941 234.826 642.979 228.089 562.224C221.352 481.469 281.425 410.573 362.19 403.961Z"/><path fill="#0C090B" d="M366.146 475.177C406.007 470.19 442.376 498.425 447.425 538.278C452.474 578.131 424.295 614.544 384.449 619.654C344.517 624.776 308.007 596.521 302.947 556.582C297.888 516.642 326.198 480.175 366.146 475.177Z"/><path fill="#3967DA" d="M373.781 373.672C373.089 356.274 370.934 339.808 383.729 326.22C390.276 319.267 398.686 315.475 408.428 315.576C495.164 323.774 573.057 397.941 594.768 480.962C599.721 499.902 602.75 516.084 587.315 531.187C571.218 546.938 543.044 545.99 527.498 529.836C522.049 523.772 518.501 507.444 515.494 499.297C507.978 478.933 496.003 458.71 480.188 443.691C467.232 431.41 452.269 421.436 435.949 414.202C411.993 403.698 393.345 406.454 378.608 384.905C377.535 384.567 376.26 384.367 375.143 384.15L373.973 381.916C373.592 378.384 373.64 377.251 373.781 373.672Z"/><path fill="#030311" d="M373.781 373.672C375.253 378.008 376.393 380.899 378.608 384.905C377.535 384.567 376.26 384.367 375.143 384.15L373.973 381.916C373.592 378.384 373.64 377.251 373.781 373.672Z"/><path fill="white" d="M178.241 541.201C225.202 537.28 221.467 568.981 231.355 598.21C236.909 614.722 245.42 630.086 256.473 643.551C277.278 669.077 305.076 686.67 337.289 694.466C352.864 698.236 362.934 696.148 375.843 706.535L376.971 707.456C375.893 709.587 374.903 711.762 374.004 713.974C368.647 727.395 370.085 744.088 375.692 757.234C367.723 767.211 365.843 769.433 353.255 772.366C330.526 772.309 301.817 764.052 281.273 754.79C225.962 729.239 183 682.852 161.758 625.748C150.044 594.427 136.408 554.748 178.241 541.201Z"/><path fill="#EF844B" d="M555.869 546.332C629.342 548.936 582.253 640.343 560.521 672.814C525.468 725.189 473.882 757.917 412.259 769.748C403.047 771.032 395.954 770.91 387.761 765.629C368.56 753.254 369.376 713.813 387.58 701.127C393.25 697.175 405.787 695.698 413.021 693.755C441.801 685.793 467.684 669.726 487.589 647.468C501.415 631.959 511.273 614.259 517.589 594.403C520.95 583.835 522.653 570.269 529.271 561.274C536.911 550.891 544.168 548.492 555.869 546.332Z"/><path fill="white" d="M375.143 384.15C365.452 391.619 347.802 389.98 335.951 393.233C282.036 408.026 237.065 447.695 220.537 501.771C217.321 512.296 216.429 522.151 213.363 532.555C212.143 536.697 208.073 539.936 204.137 541.565L202.493 540.733C204.041 536.985 209.251 531.969 209.928 528.984C213.63 512.672 215.905 498.7 222.905 483.116C243.517 437.951 282.879 404.081 330.612 390.434C331.504 390.181 375.186 382.067 373.973 381.916L375.143 384.15Z"/><path fill="white" d="M523.596 530.386C529.742 535.564 533.752 540.066 542.007 542.78L547.629 544.629C543.144 546.552 539.942 548.072 535.605 550.291C529.112 555.626 529.201 556.099 523.949 562.479L524.147 560.773C525.611 548.855 524.5 542.187 523.596 530.386Z"/><path fill="white" d="M373.756 699.399C381.769 698.805 385.348 696.497 381.389 703.682C377.266 706.085 375.225 703.611 373.756 699.399Z"/><path fill="#0C090B" d="M1457.89 515.615C1460.21 463.696 1489.57 409.366 1527.49 374.628C1571.82 333.538 1630.82 312.014 1691.19 314.906C1750.66 318.205 1806.38 345.005 1846.08 389.405C1880.1 427.07 1903.43 480.069 1902.7 531.647C1902.16 569.997 1853.57 588.53 1827.45 560.589C1824.3 557.339 1821.72 554.29 1818.99 550.726C1818.38 549.935 1817.79 549.139 1817.2 548.339C1816.56 627.346 1759.12 683.729 1681.11 688.479L1681.09 774.165C1620.21 773.918 1562.02 749.084 1519.72 705.301C1485.76 670.416 1460.01 619.489 1457.87 570.372C1456.66 563.856 1456.84 547.917 1457.08 540.8C1456.93 533.316 1456.56 522.824 1457.89 515.615Z"/><path fill="white" d="M1459.76 534.845C1465.33 514.93 1484.91 502.319 1505.34 505.482C1525.78 508.644 1540.62 526.583 1539.91 547.249C1539.2 567.916 1523.15 584.788 1502.54 586.534C1481.94 588.28 1463.28 574.349 1459.1 554.098C1458.15 549.502 1458 544.778 1458.66 540.131C1458.91 538.347 1459.28 536.581 1459.76 534.845Z"/><path fill="#7F7F7E" d="M1457.08 540.8L1458.66 540.131C1458 544.778 1458.15 549.502 1459.1 554.098C1457.74 560.893 1458.24 563.502 1457.87 570.372C1456.66 563.856 1456.84 547.917 1457.08 540.8Z"/><path fill="#3C3C3C" d="M1457.08 540.8C1456.93 533.316 1456.56 522.824 1457.89 515.615C1458.25 520.188 1457.49 531.395 1458.92 533.547L1459.76 534.845C1459.28 536.581 1458.91 538.347 1458.66 540.131L1457.08 540.8Z"/><path fill="white" d="M1671.51 505.609C1693.59 501.109 1715.18 515.264 1719.85 537.315C1724.52 559.366 1710.53 581.057 1688.52 585.9C1666.26 590.796 1644.28 576.62 1639.55 554.326C1634.83 532.032 1649.18 510.159 1671.51 505.609Z"/><path fill="#0C090B" d="M1668.77 1136.4C1672.86 1136.13 1677.49 1136.07 1681.6 1136.06C1738.4 1136.36 1792.78 1159.07 1832.92 1199.25C1877.01 1243.73 1894.75 1295.82 1894.25 1357.3C1902.88 1366.58 1908.12 1376.07 1907.84 1389.24C1907.65 1400.05 1903.15 1410.32 1895.33 1417.78C1876.56 1435.67 1858.28 1425.71 1836.13 1425.54C1776.73 1425.1 1718.76 1466.09 1711.28 1527.25C1709.8 1539.3 1710.73 1555.52 1710.78 1567.98L1710.8 1628.05L1695.25 1628.18C1679.84 1628.33 1664.43 1628.33 1649.03 1628.18L1649.14 1563.93C1649.16 1554.73 1649.65 1537.33 1648.57 1528.57C1645.03 1499.88 1629.18 1474.11 1606.74 1455.88C1581.79 1435.61 1550.23 1425.97 1518.25 1425.12C1510.3 1425.58 1502.38 1427.91 1494.48 1428.63C1473.3 1430.58 1453.54 1412.18 1452.96 1391.02C1452.55 1376.03 1457.06 1367.87 1467.15 1357.36C1461.44 1245.37 1543.53 1151.07 1653.99 1137.79C1658.89 1137.2 1663.84 1136.8 1668.77 1136.4Z"/><path fill="white" d="M1673.36 1181.41C1675.74 1181.22 1678.12 1181.13 1680.5 1181.13C1726.13 1181.29 1769.8 1199.71 1801.75 1232.28C1834.87 1266.15 1849.37 1306.63 1848.84 1353.47C1835.9 1362.12 1831.83 1368.63 1828.41 1383.91C1824.06 1383.96 1819.71 1384.11 1815.36 1384.34C1761.82 1387.26 1719.99 1410.35 1684.81 1449.83L1679.64 1456.42C1642.29 1408.6 1592.64 1385.37 1532.41 1383.91C1529.69 1371.29 1524.95 1363.01 1515.18 1354.64C1512.47 1260.81 1580.43 1188.38 1673.36 1181.41Z"/><path fill="#0C090B" d="M1669.7 1213.38C1707.17 1208.96 1748.4 1224.86 1774.56 1251.76C1801.46 1279.41 1812.13 1309.99 1811.99 1348.01L1749.99 1347.97C1748.67 1312.38 1729.53 1287.17 1694.75 1278.37C1691.64 1277.83 1688.59 1277.35 1685.43 1277.18C1667.1 1276.03 1649.11 1282.47 1635.66 1294.98C1619.41 1310.02 1614.33 1326.67 1613.49 1348.04L1550.51 1347.95C1548.34 1276.59 1599.62 1221.48 1669.7 1213.38Z"/><path fill="#EF844B" d="M1669.59 1216.37C1673.17 1216.09 1676.76 1215.93 1680.34 1215.87C1714.54 1215.74 1747.4 1229.2 1771.69 1253.28C1797.19 1278.54 1808.76 1309.31 1808.97 1344.81C1790.83 1345.23 1771.41 1344.83 1753.17 1344.77C1750.66 1308.24 1730.18 1284 1694.72 1275.13C1692.99 1274.75 1691.25 1274.46 1689.49 1274.27C1644.31 1269.67 1614.1 1301.69 1610.06 1344.92C1591.27 1345.1 1572.47 1345 1553.68 1344.61C1553.93 1275.88 1601.9 1224.57 1669.59 1216.37Z"/><path fill="white" d="M1671.49 1139.41C1674.65 1139.21 1677.83 1139.11 1681 1139.1C1737.87 1139.3 1792.28 1162.31 1832.04 1202.98C1872.85 1244.89 1892.01 1296.86 1891.12 1354.86C1876.36 1346.99 1867.75 1346.4 1852.03 1351.44C1852.5 1263.72 1791.91 1192.9 1704.41 1179.74C1699.89 1179.06 1695.28 1178.61 1690.74 1178.11C1687.39 1178.02 1684.04 1177.97 1680.69 1177.98C1635.27 1178.48 1591.9 1196.94 1560.04 1229.3C1526.19 1263.66 1511.95 1305.37 1512.11 1352.9C1495.74 1345.42 1485.63 1347.35 1470.19 1354.98C1467.66 1302.07 1485.99 1250.28 1521.25 1210.74C1561.15 1165.15 1611.85 1143.44 1671.49 1139.41Z"/><path fill="white" d="M1532.31 1387.29C1540.23 1387.29 1548.15 1387.78 1556.02 1388.78C1605.67 1394.83 1647.16 1419.96 1677.68 1459.16C1664 1480.73 1657.76 1493.22 1651.64 1517.81L1650.53 1518.42C1641.68 1494.71 1639.18 1483.4 1620.21 1463.83C1591.58 1434.29 1555.32 1422.85 1515.08 1422.11C1527.08 1411.15 1531.17 1403.68 1532.31 1387.29Z"/><path fill="white" d="M1816.53 1387.4L1827.99 1387.1C1829.41 1403.2 1833.02 1411.76 1845.4 1422.18C1778.39 1420.53 1727.71 1453.51 1709.25 1518.64L1708.36 1519.57C1701.29 1494.22 1696.55 1481.71 1681.88 1459.41C1715.17 1414.41 1761.36 1391.62 1816.53 1387.4Z"/><path fill="white" d="M1679.67 1462.78C1690.76 1474.83 1701.64 1504.69 1705.14 1520.86C1705.4 1522.09 1705.67 1523.31 1705.97 1524.53C1698.4 1524.23 1690.82 1524.08 1683.25 1524.07C1673.38 1524.02 1663.5 1524.04 1653.63 1524.15C1659.09 1500.06 1664.37 1485.13 1678.54 1464.47L1679.67 1462.78Z"/><path fill="#C1C1C0" d="M1651.64 1517.81C1651.62 1518.35 1651.77 1520.62 1650.7 1520.44C1650.32 1519.76 1650.5 1519.35 1650.53 1518.42L1651.64 1517.81Z"/><path fill="#0C090B" d="M1115.9 1381.16L1236.18 1381.18C1236.32 1423.6 1235.28 1444.87 1220.23 1485.1C1209.19 1511.44 1194.43 1534.89 1174.19 1555.2C1134.29 1595.77 1079.66 1618.46 1022.75 1618.09C966.339 1618.01 912.329 1595.26 872.853 1554.96C822.743 1504.05 812.009 1449.32 812.457 1381.16L932.198 1381.16C932.141 1417.34 931.314 1445.25 959.514 1473.27C976.698 1490.27 999.931 1499.75 1024.1 1499.62C1070.68 1499.25 1111.33 1461.77 1115.35 1415.31C1116.34 1403.96 1115.99 1392.56 1115.9 1381.16Z"/><path fill="white" d="M815.885 1384.29C834.13 1384.15 852.377 1384.27 870.619 1384.65C870.838 1435.1 877.155 1474.93 914.597 1513.08C943.245 1542.37 982.353 1559.07 1023.32 1559.51C1064.56 1559.47 1104.03 1542.75 1132.75 1513.15C1170.45 1475.02 1178.19 1435.54 1177.93 1384.35C1196.28 1384.32 1214.63 1384.39 1232.98 1384.57C1233.04 1405.07 1232.9 1416.97 1230.29 1437.28C1222.49 1482.44 1202.88 1522.25 1170.24 1554.61C1131.12 1593.58 1078.07 1615.33 1022.85 1615.04C967.311 1614.9 914.157 1592.46 875.31 1552.77C826.582 1503.35 815.409 1450.63 815.885 1384.29Z"/><path fill="#EB90C1" d="M873.951 1384.37L929.033 1384.48C928.888 1420.47 928.927 1446.18 956.031 1474.38C973.541 1492.45 997.592 1502.7 1022.75 1502.82C1048.26 1502.81 1072.7 1492.58 1090.61 1474.41C1118.23 1446.87 1119.39 1420.49 1119.28 1384.55L1174.54 1384.48C1174.83 1401.37 1174.65 1415.14 1171.79 1431.93C1157.4 1503.96 1096.7 1556.61 1022.49 1556.04C982.469 1555.7 944.285 1539.22 916.582 1510.34C880.824 1473.59 873.33 1433.4 873.951 1384.37Z"/><path fill="#0C090B" d="M994.63 317.33C996.93 317.074 1000.39 317.2 1002.64 317.596C1011.19 319.109 1018.74 324.11 1023.46 331.401C1030.26 341.771 1030.22 363.729 1027.73 375.606C1022.29 401.61 999.58 400.867 980.05 407.601C969.004 411.463 958.482 416.686 948.728 423.149C916.909 444.351 894.797 478.705 889.828 515.933C888.095 528.912 883.182 536.79 872.261 544.073C892.361 561.1 887.331 575.619 896.11 598.633C903.914 619.087 913.099 633.303 928.879 648.503C939.835 659.079 952.49 667.74 966.315 674.123C978.421 679.772 991.849 683.328 1004.88 686.392C1028.16 691.857 1025.79 709.783 1026.27 728.468C1027.1 760.818 1023.76 777.485 986.75 770.307C936.337 757.356 894.448 734.289 860.53 693.941C837.52 666.942 821.332 634.811 813.329 600.251C807.531 575.743 805.697 560.713 827.343 543.644C820.357 537.71 812.811 528.955 812.8 519.301C812.69 422.07 901.4 329.739 994.63 317.33Z"/><path fill="white" d="M995.575 320.31C1015.3 319.695 1026.05 335.05 1025.75 353.227C1025.56 364.354 1026.84 382.485 1016.97 390.344C1007.03 398.266 990.881 400.359 978.855 404.64C969.48 408.034 960.46 412.338 951.924 417.49C923.535 434.462 902.247 461.134 891.994 492.58C885.248 513.47 889.164 529.833 868.295 542.297C860.219 538.842 856.493 538.171 848.07 537.764C843.221 538.326 837.276 539.83 832.524 541.052C811.376 537.013 815.347 507.021 818.155 491.838C833.865 406.897 909.764 332.374 995.575 320.31Z"/><path fill="#0C090B" d="M1065.46 350.224C1087.71 348.187 1118.67 361.001 1137.93 371.48C1182.28 395.75 1216.6 438.054 1231 486.55C1236.02 503.432 1236.46 522.002 1241.17 539.049C1241.7 545.145 1241.09 552.617 1241.1 558.63C1241.14 630.973 1199.12 697.662 1135.52 731.37C1120.15 739.514 1106.88 744.011 1090.17 748.675C1078.64 751.066 1069.19 753.367 1057.48 748.625C1049.31 745.391 1042.86 738.888 1039.7 730.69C1035.38 719.781 1035.33 695.522 1039.72 684.456C1046.93 666.287 1068.29 666.309 1083.86 659.793C1112.93 647.629 1136.26 623.789 1148.31 594.676C1160.88 564.569 1160.73 530.66 1147.91 500.663C1136.12 472.524 1113.72 449.072 1085.46 437.425C1068.39 430.391 1048.6 430.937 1041.5 410.003C1037.41 397.944 1037.49 379 1043.19 367.325C1048.09 357.291 1055.44 353.451 1065.46 350.224Z"/><path fill="#0EB27E" d="M1159.86 561.347C1177.6 592.199 1208.99 597.089 1233.52 570.597C1234.1 569.149 1236.92 564.645 1237.92 562.974C1237.37 569.77 1237.22 577.613 1235.99 584.1C1230.73 661.189 1148.75 744.93 1068.92 748.31C1061.66 748.617 1051.7 742.991 1047.1 737.171C1038.51 726.288 1039.16 710.582 1039.97 697.414C1042.64 669.395 1062.68 671.355 1083.54 663.231C1094.42 658.995 1105.36 652.219 1114.56 644.809C1140.31 624.24 1156.64 594.14 1159.86 561.347Z"/><path fill="#1AA583" d="M1233.52 570.597C1234.1 569.149 1236.92 564.645 1237.92 562.974C1237.37 569.77 1237.22 577.613 1235.99 584.1C1234.84 578.932 1235.79 574.072 1233.52 570.597Z"/><path fill="#EF844B" d="M1157.88 521.204C1148.64 484.976 1132.35 461.968 1100.77 441.36C1080.61 428.206 1050.1 431.489 1043.9 406.242C1040.98 394.367 1041.24 375.813 1047.79 365.422C1051.59 359.439 1057.64 355.228 1064.57 353.729C1074.49 351.514 1085.08 354.797 1094.67 357.347C1163.64 375.68 1219.18 435.004 1232.16 505.252C1233.07 510.116 1233.83 515.007 1234.44 519.918C1224.43 509.528 1214.56 502.181 1199.2 502.071C1187.75 502.029 1176.76 506.539 1168.64 514.609C1167.28 515.989 1166 517.473 1164.75 518.957C1163.13 522.061 1162.22 524.228 1159.83 526.839C1157.97 525.272 1158.44 524.334 1157.88 521.204Z"/><path fill="white" d="M1194.48 505.586C1215.99 502.991 1235.56 518.239 1238.31 539.729C1241.05 561.22 1225.94 580.897 1204.47 583.791C1182.79 586.712 1162.87 571.419 1160.1 549.717C1157.33 528.015 1172.76 508.207 1194.48 505.586Z"/><path fill="#0C090B" d="M1017.13 1145.4C1024.31 1144.86 1031.53 1145.53 1038.49 1147.39C1054.84 1151.94 1068.68 1162.88 1076.88 1177.75C1084.95 1192.11 1086.85 1209.13 1082.16 1224.92C1076.69 1243.61 1065.42 1254.75 1048.8 1263.99C1049.66 1316.61 1048.58 1369.98 1048.86 1422.64C1048.93 1436.51 1041.11 1445.29 1028.55 1450.23C1012.59 1452.87 996.132 1446.02 993.898 1429.05C991.602 1411.62 992.608 1391.49 992.64 1373.84C992.94 1337.08 992.858 1300.32 992.395 1263.57C990.721 1262.52 989.072 1261.43 987.45 1260.3C973.403 1250.47 963.402 1235.45 960.637 1218.45C957.938 1201.75 962.02 1184.67 971.975 1171C983.34 1155.58 998.538 1148.07 1017.13 1145.4Z"/><path fill="white" d="M1018.42 1183.55C1031.23 1181.8 1043.13 1190.53 1045.31 1203.28C1047.48 1216.03 1039.15 1228.21 1026.48 1230.8C1017.9 1232.56 1009.05 1229.5 1003.38 1222.82C997.72 1216.15 996.145 1206.92 999.275 1198.74C1002.4 1190.56 1009.74 1184.74 1018.42 1183.55Z"/><path fill="#0C090B" d="M1023.34 480.682C1060.58 479.813 1091.54 509.15 1092.69 546.381C1093.83 583.612 1064.72 614.791 1027.49 616.204C989.886 617.632 958.313 588.153 957.16 550.535C956.007 512.917 985.716 481.56 1023.34 480.682Z"/><path fill="#0C090B" d="M1075 1703.16L1074.37 1704.97C1070.54 1716.12 1056.18 1711.31 1055.83 1706.87C1057.57 1703.54 1063.13 1708.03 1067.74 1706.74C1070.15 1704.25 1069.6 1701.09 1066.81 1702.59C1055.59 1708.61 1050.78 1690.45 1058.97 1684.86C1061.8 1682.33 1066.77 1685.24 1068.69 1684.73C1071.35 1684.03 1072.42 1682.64 1074.87 1686.05C1074.44 1690.51 1073.98 1698.82 1075 1703.16Z"/><path fill="white" d="M1064.45 1688.95C1067.1 1688.79 1069.41 1690.76 1069.68 1693.4C1069.95 1696.05 1068.08 1698.43 1065.45 1698.81C1063.64 1699.07 1061.84 1698.32 1060.76 1696.86C1059.67 1695.4 1059.47 1693.45 1060.24 1691.8C1061.01 1690.15 1062.63 1689.05 1064.45 1688.95Z"/><path fill="#0C090B" d="M1723.26 836.265C1723.67 836.346 1728.29 836.983 1728.34 837.882C1728.76 846.174 1729.12 855.786 1727.96 863.991C1727.57 866.762 1723.12 862.82 1722.11 863.566C1719.89 865.194 1717.37 865.074 1714.64 865.281C1709.11 859.826 1708.19 856.523 1710.32 848.609C1712.58 840.243 1722.85 845.632 1722.67 845.678C1723.36 844.508 1723.17 838.137 1723.26 836.265Z"/><path fill="white" d="M1715.63 848.253C1723.76 849.494 1724.66 851.695 1722.77 859.562C1713.16 861.486 1714.13 855.846 1715.63 848.253Z"/><path fill="#0C090B" d="M1677.91 836.141C1678.5 836.303 1679.1 836.455 1679.7 836.597C1686.48 838.161 1680.96 843.913 1683.6 845.644C1697.26 839.622 1699.17 852.615 1695.21 863.121C1695.11 863.166 1695 863.212 1694.9 863.258L1693.3 863.977C1685.6 867.368 1687.38 860.468 1680.6 864.806C1675.78 867.886 1677.89 839.043 1677.91 836.141Z"/><path fill="white" d="M1684.48 848.214C1693.31 849.432 1692.54 852.152 1690.17 860.645C1681.78 859.112 1682.58 855.992 1684.48 848.214Z"/><path fill="#0C090B" d="M1615.99 843.695C1617.54 843.951 1619.1 844.102 1620.59 844.632C1621.85 845.082 1622.19 845.469 1623.45 844.923C1624.11 844.637 1624.74 844.26 1625.45 844.094C1627.06 843.719 1628.65 844.132 1629.98 845.043C1630.68 845.522 1631.54 846.341 1632.46 846.442C1632.61 846.46 1632.95 846.166 1632.96 846.161C1633.66 845.623 1634.65 844.55 1635.58 844.382C1637.61 844.013 1640.86 844.189 1642.59 845.481C1643.72 846.325 1644.31 847.747 1644.56 849.1C1645.03 851.708 1645.58 861.877 1643.85 863.925C1643.48 864.369 1642.89 864.629 1642.31 864.64C1641.29 864.661 1640.46 864.259 1639.72 863.57C1639.08 862.977 1639.05 861.805 1639.1 861.01C1639.26 858.704 1640.32 852.139 1638.75 850.124C1637.53 848.555 1634.57 848.882 1632.91 848.816C1632.88 853.506 1633.2 859.343 1632.63 863.775C1632.48 864.896 1628.47 865.288 1627.89 864.062C1626.6 861.353 1627.74 856.141 1627.45 852.996C1627.4 850.771 1626.99 848.406 1623.53 849.016C1617.99 849.992 1625.61 869.632 1616.77 864.269C1615.22 863.329 1615.93 846.414 1615.99 843.695Z"/><path fill="#0C090B" d="M1077.01 1686.59C1083.62 1683.15 1092.18 1680.98 1094.04 1690.69C1093.9 1691.67 1093.77 1692.65 1093.64 1693.63C1096.11 1707.01 1085.79 1705.54 1076.88 1701.39C1075.64 1702.14 1075.48 1702.04 1075 1703.16C1073.98 1698.82 1074.44 1690.51 1074.87 1686.05C1075.58 1686.23 1076.3 1686.41 1077.01 1686.59Z"/><path fill="white" d="M1074.87 1686.05C1075.58 1686.23 1076.3 1686.41 1077.01 1686.59C1079.26 1702.32 1088.87 1691.79 1089.02 1699.03C1085.32 1704.34 1078.28 1692.51 1076.88 1701.39C1075.64 1702.14 1075.48 1702.04 1075 1703.16C1073.98 1698.82 1074.44 1690.51 1074.87 1686.05Z"/><path fill="white" d="M1093.64 1693.63L1092.3 1693.22C1089.98 1692.49 1083.61 1691.81 1083.07 1690.5C1080.77 1684.83 1092.89 1690.45 1094.04 1690.69C1093.9 1691.67 1093.77 1692.65 1093.64 1693.63Z"/><path fill="#0C090B" d="M405.4 1683.29C407.549 1683.72 411.412 1685.48 412.737 1684.84C413.851 1683.89 418.187 1683.41 419.256 1684.67C422.744 1688.51 425.683 1680.19 431.467 1685.16C433.997 1687.33 435.667 1707.49 429.878 1704C426.115 1701.74 432.979 1683.42 422.188 1689.54C422.189 1691.51 422.879 1703.03 421.356 1703.68C412.142 1707.64 421.532 1688.65 414.005 1688.26C405.746 1687.83 415.75 1708.15 405.861 1703.44C404.795 1702.94 405.316 1685.84 405.4 1683.29Z"/><path fill="#0C090B" d="M429.529 854.52C433.65 842.05 434.562 837.69 439.688 853.092L440.944 856.846C442.038 852.04 442.218 846.172 445.545 843.786C450.38 844.684 447.492 846.728 447.718 848.989C447.981 851.622 441.127 876.344 437.224 861.013L434.817 851.327C433.901 854.583 432.671 862.285 430.455 864.726C428.944 865.676 425.76 864.935 425.16 862.969C423.863 858.714 422.845 853.057 421.486 848.94C420.18 844.983 421.274 843.725 425.071 844.661C426.357 844.978 427.888 853.073 428.448 854.753L429.529 854.52Z"/><path fill="#0C090B" d="M309.518 1693.89C313.944 1679.07 327.784 1679.63 328.938 1695.48C328.85 1696.33 328.974 1697.09 329.056 1697.96C324.312 1706.42 318.018 1707.08 310.861 1700.26L308.231 1699.29C308.011 1697.65 307.796 1696.09 307.626 1694.44C308.715 1694.19 308.627 1694.23 309.518 1693.89Z"/><path fill="white" d="M328.938 1695.48C328.85 1696.33 328.974 1697.09 329.056 1697.96C323.966 1697.91 321.192 1700.76 317.607 1699.73C316.052 1699.28 313.37 1695.37 318.471 1695.42C321.96 1695.48 325.449 1695.5 328.938 1695.48Z"/><path fill="white" d="M307.626 1694.44C308.715 1694.19 308.627 1694.23 309.518 1693.89C309.986 1696.01 310.433 1698.13 310.861 1700.26L308.231 1699.29C308.011 1697.65 307.796 1696.09 307.626 1694.44Z"/><path fill="white" d="M315.971 1687.89C319.515 1687.92 322.078 1687.08 323.321 1690.93L323.758 1692.19C317.689 1691.91 315.991 1693.74 315.971 1687.89Z"/><path fill="#0C090B" d="M1086.17 844.599C1091.56 843.212 1097.07 846.373 1098.6 851.726C1100.13 857.078 1097.11 862.673 1091.8 864.341C1088.24 865.459 1084.35 864.557 1081.65 861.984C1078.94 859.411 1077.85 855.573 1078.79 851.96C1079.73 848.347 1082.55 845.529 1086.17 844.599Z"/><path fill="white" d="M1087.79 847.386C1095.25 851.371 1094.48 856.174 1089.45 862.076C1082.74 857.406 1082.45 853.539 1087.79 847.386Z"/><path fill="#0C090B" d="M417.939 857.367C419.36 860.615 418.074 862.532 414.998 863.964C405.827 869.865 395.378 856.674 400.949 849.506C410.048 837.8 417.585 845.244 419.782 856.113C418.768 856.741 418.888 856.638 417.939 857.367Z"/><path fill="white" d="M419.782 856.113C418.768 856.741 418.888 856.638 417.939 857.367C415.853 858.163 412.977 859.709 410.94 860.684C408.523 861.841 403.915 857.456 405.948 856.553C408.494 855.422 416.634 855.945 419.782 856.113Z"/><path fill="white" d="M408.465 847.391C411.947 848.917 415.369 849.905 411.649 853.275C405.855 852.266 404.226 852.892 408.465 847.391Z"/><path fill="#0C090B" d="M299.824 844.929C305.17 842.991 311.072 845.778 312.973 851.138C314.873 856.498 312.045 862.38 306.672 864.243C301.352 866.088 295.54 863.294 293.658 857.987C291.776 852.679 294.53 846.848 299.824 844.929Z"/><path fill="white" d="M302.047 847.732C309.074 850.446 308.775 854.334 305.5 860.756C297.059 859.067 297.407 853.826 302.047 847.732Z"/><path fill="#0C090B" d="M993.137 1698.06C993.159 1700.02 992.916 1701.81 990.912 1702.8C972.023 1712.11 968.457 1680.17 988.147 1684.49C993.286 1685.62 994.833 1690.47 993.163 1695.24C992.62 1696.64 992.675 1696.51 993.137 1698.06Z"/><path fill="white" d="M993.137 1698.06C989.508 1697.75 989.844 1698.15 986.489 1699.8C982.161 1701.92 976.789 1695.17 983.469 1695.22C986.7 1695.26 989.932 1695.27 993.163 1695.24C992.62 1696.64 992.675 1696.51 993.137 1698.06Z"/><path fill="white" d="M981.942 1687.71C985.44 1688.08 988.89 1687.76 988.353 1692.23C982.829 1691.91 980.279 1693.48 981.942 1687.71Z"/><path fill="#0C090B" d="M1013.86 843.936C1025.29 845.134 1014.12 858.204 1021.02 860.237C1029.21 862.654 1024.17 846.953 1026.96 844.61C1031.53 842.17 1031.55 846.58 1031.53 849.494C1031.5 853.505 1031.53 857.517 1031.61 861.528C1031.72 868.657 1026.27 861.72 1022.95 864.555C1021.43 865.851 1016.91 864.554 1015.11 864.001C1012.79 863.727 1012.18 863.852 1009.75 864.036C1009.79 860.073 1009.45 852.857 1010.28 849.448C1013.17 847.893 1012.71 846.996 1013.86 843.936Z"/><path fill="white" d="M1010.28 849.448C1013.17 847.893 1012.71 846.996 1013.86 843.936C1013.63 850.951 1012.86 857.371 1015.11 864.001C1012.79 863.727 1012.18 863.852 1009.75 864.036C1009.79 860.073 1009.45 852.857 1010.28 849.448Z"/><path fill="#0C090B" d="M994.265 852.058C993.463 841.463 1004.23 841.571 1010.28 849.448C1009.45 852.857 1009.79 860.073 1009.75 864.036C1005.8 864.97 1003.87 863.153 1002.51 863.933C995.682 867.831 988.536 861.396 994.437 853.228L994.265 852.058Z"/><path fill="white" d="M994.265 852.058C997.238 850.85 1001.9 846.526 1003.59 849.214C1006.37 853.65 995.375 853.209 994.437 853.228L994.265 852.058Z"/><path fill="white" d="M999.717 855.285C1006 856.177 1005.66 857.488 1001.64 862.32C996.674 859.792 996.316 859.887 999.717 855.285Z"/><path fill="#0C090B" d="M340.703 843.843C347.639 844.339 353.853 845.816 352.328 854.808C351.907 857.288 337.516 853.764 339.716 858.222C341.283 861.398 345.318 860.905 348.046 859.05L349.616 858.033C360.038 859.714 340.228 870.68 335.822 861.569C332.073 853.817 333.891 848.523 340.703 843.843Z"/><path fill="white" d="M342.34 847.416C344.744 848.402 348.395 849.297 345.994 852.456L345.196 853.547C339.463 852.023 338.633 852.395 342.34 847.416Z"/><path fill="#0C090B" d="M388.717 1683.88C392.085 1683.85 394.162 1683.24 397.504 1684.96C400.198 1685.94 403.1 1692.38 401.552 1694.68C400.744 1696.73 388.233 1694.38 388.455 1696.38C389.305 1704.05 398.312 1697.66 398.501 1697.56L399.396 1697.08C406.302 1703.59 389.879 1707.42 385.78 1701.56C380.535 1694.05 382.403 1689.29 388.717 1683.88Z"/><path fill="white" d="M389.244 1687.9L390.32 1687.92C393.378 1687.96 395.075 1687.9 396.249 1691.1L396.755 1692.36C393.364 1692.16 388.239 1693.51 389.027 1689.24L389.244 1687.9Z"/><path fill="#0C090B" d="M967.422 843.997C973.77 844.137 978.621 843.938 980.823 852.002C982.821 859.317 969.688 853.648 967.616 857.193C967.645 858.609 967.804 858.617 968.928 859.335L968.822 859.337C972.234 861.691 974.527 860.306 977.898 858.684C985.624 860.345 969.994 869.396 964.781 862.181C959.75 855.22 961.485 849.577 967.422 843.997Z"/><path fill="white" d="M969.487 847.567L969.963 847.679C974.129 848.622 974.909 848.625 974.483 852.987C971.274 852.5 966.581 853.214 968.753 849.062L969.487 847.567Z"/><path fill="#0C090B" d="M453.508 1694.75C455.312 1709.71 436.9 1704.93 436.59 1699.05C438.5 1696.89 441.147 1699.02 443.034 1699.76C447.653 1701.61 452.208 1697.43 444.512 1695.88C425.627 1692.08 446.922 1673.49 454.25 1690.7C453.846 1692.2 453.733 1693.2 453.508 1694.75Z"/><path fill="white" d="M453.508 1694.75C452.579 1694.3 437.886 1690.09 443.582 1688.12C445.829 1687.34 449.761 1690.15 454.25 1690.7C453.846 1692.2 453.733 1693.2 453.508 1694.75Z"/><path fill="#0C090B" d="M968.762 1692.17C969.844 1693.09 971.014 1693.88 971.832 1695.06C972.591 1696.16 972.84 1697.54 972.515 1698.83C969.943 1709.43 951.782 1703.92 956.999 1698.24C959.759 1696.49 965.991 1704.88 967.048 1698.4C967.337 1696.62 949.278 1694.12 958.083 1685.55C963.314 1680.46 970.027 1685.2 973.134 1689.85C971.351 1690.95 970.694 1691.39 968.762 1692.17Z"/><path fill="white" d="M968.762 1692.17C966.296 1692.23 962.496 1692.17 961.622 1689.25C963.527 1686.28 967.573 1690.24 973.134 1689.85C971.351 1690.95 970.694 1691.39 968.762 1692.17Z"/><path fill="#0C090B" d="M1746.88 853.387C1755.17 867.826 1731.65 867.76 1731.76 859.461C1734.09 855.412 1739.73 864.37 1743.8 859.275C1743.12 857.286 1741.33 856.765 1739.39 856.415C1726.4 854.072 1732.06 842.455 1742.5 844.223C1746.56 844.91 1748.49 847.146 1746.83 851.188C1746.62 852.091 1746.77 852.442 1746.88 853.387Z"/><path fill="white" d="M1746.88 853.387C1731.17 850.592 1737.73 845.973 1745.27 850.402L1746.83 851.188C1746.62 852.091 1746.77 852.442 1746.88 853.387Z"/><path fill="#0C090B" d="M1033.67 1683.34C1035.58 1683.74 1039.8 1685.64 1041 1685C1042.92 1683.98 1044.84 1683.45 1047 1684C1048.66 1684.44 1050.08 1685.52 1050.94 1687C1052.52 1689.68 1053.91 1702.86 1049.26 1705.2C1045.3 1704.11 1046.5 1698.19 1046.41 1694.75C1046.52 1693.13 1046.8 1686.65 1041.88 1688.06C1037 1690.77 1040.58 1700.28 1038.7 1703.32C1037.74 1704.87 1033.69 1705.13 1033.7 1701.49L1033.67 1683.34Z"/><path fill="#0C090B" d="M1661.9 843.659C1669.12 846.595 1662.69 850.279 1661.8 857.476C1661.38 860.85 1656 874.657 1650.51 871.934C1644.47 868.932 1653.46 868.136 1653.69 863.658C1652.96 861.747 1646.16 845.855 1647.59 844.994C1653.31 841.566 1655.01 853.408 1656.86 857.91C1658.22 852.725 1658.74 847.635 1661.9 843.659Z"/><path fill="#0C090B" d="M1109.13 844.336C1121.48 843.693 1120.35 849.663 1119.43 863.877C1119.28 866.24 1111.57 864.614 1114.44 858.519C1115.61 856.045 1114.55 851.086 1111.75 847.604C1101.72 854.253 1110.14 860.791 1106.23 864.315C1099.68 870.233 1101.75 847.12 1102.07 846.009C1102.27 845.342 1102.78 844.816 1103.44 844.606C1106.14 843.749 1106.74 847.789 1109.13 844.336Z"/><path fill="#0C090B" d="M308.231 1699.29C305.371 1703.52 306.108 1701.98 302.515 1704.17C297.744 1707.09 286.189 1699.72 293.044 1697.68C295.769 1696.86 297.92 1701.66 300.996 1700.3C305.754 1697.42 299.532 1696.48 297.518 1695.88C278.583 1690.17 303.799 1675.18 307.122 1689.28C304.638 1692.77 298.506 1684.05 296.8 1689C295.847 1691.77 305.11 1693.3 307.626 1694.44C307.796 1696.09 308.011 1697.65 308.231 1699.29Z"/><path fill="#0C090B" d="M1041.65 844.05C1058.93 844.79 1053.21 856.148 1047.85 850.552C1039.72 842.061 1035.08 865.109 1048.79 859.069C1049.74 858.006 1050.94 856.957 1052.31 858.155C1053.83 859.655 1051.27 862.525 1050.17 863.214C1041.35 868.758 1032.54 861.241 1035.13 851.497C1036.26 847.241 1038.38 846.094 1041.65 844.05Z"/><path fill="#0C090B" d="M314.412 843.827C322.509 844.566 320.351 849.48 323.583 858.208C324.383 855.688 326.836 845.277 328.361 844.502C333.689 841.796 331.956 847.858 331.589 849.277C331.023 850.867 326.091 873.946 319.851 862.048C318.286 859.065 314.66 846.916 314.412 843.827Z"/><path fill="#0C090B" d="M951.205 858.199C952.089 855.686 954.365 846.985 955.215 845.604C956.697 843.201 961.544 842.185 959.673 848.272C958 852.981 956.567 857.828 954.894 862.511C953.734 865.756 949.379 864.891 948.729 863.727C946.458 859.657 942.433 848.078 942.526 843.872C950.563 845.196 948.887 849.591 951.205 858.199Z"/><path fill="#0C090B" d="M387.94 848.01C385.532 852.395 384.415 857.166 382.841 861.535C380.619 867.702 375.276 864.689 374.333 859.409C373.572 855.146 370.233 849.403 369.362 845.113C369.155 844.093 373.379 844.008 373.917 844.562C376.358 847.578 377.994 855.08 379.065 858.736L379.599 856.922C381.231 851.532 381.138 847.932 384.837 844.584C387.609 845.267 387.365 845.352 387.94 848.01Z"/><path fill="#0C090B" d="M1059.32 838.131C1059.84 838.353 1060.37 838.564 1060.89 838.765C1065.25 840.386 1061.77 843.421 1064.54 844.197C1071.04 846.494 1064.79 847.917 1063.72 849.568C1059.61 855.89 1067.05 862.001 1067.38 863.216L1067.84 864.798C1054.29 865.116 1058.74 860.677 1057.99 850.481C1057.89 849.125 1052.09 846.73 1057.02 844.161C1058.36 843.463 1058.84 839.668 1059.32 838.131Z"/><path fill="#0C090B" d="M1000.56 1679.14C1006.72 1678.03 1000.9 1683.2 1007.08 1684.89C1009.18 1685.46 1004.98 1688.62 1004.42 1689.16C1003.32 1690.22 1003.83 1696.88 1004.13 1698.53C1006.68 1701.7 1007.07 1698.43 1008.73 1704.22C995.659 1705.74 999.738 1698.7 998.621 1689.17C998.511 1688.23 993.517 1686.88 996.5 1684.61C999.167 1682.58 999.108 1682.16 1000.56 1679.14Z"/><path fill="#0C090B" d="M373.66 1678.97C380.13 1678.88 375.361 1681.86 378.964 1684.03C380.46 1684.93 381.134 1683.89 381.027 1686.68C378.14 1690.5 376.256 1687.19 377.135 1696.6C377.397 1699.4 380.246 1700.37 382.143 1702.8C370.22 1711.55 372.799 1690.49 370.965 1688.16C368.388 1684.9 371.751 1683.09 373.66 1678.97Z"/><path fill="#0C090B" d="M1013.21 1678.32C1013.91 1678.53 1014.6 1678.74 1015.3 1678.94C1017.62 1679.31 1016.7 1682.11 1017.64 1683.59C1018.42 1684.4 1020.25 1683.93 1020.87 1685.07C1022.01 1687.15 1018.99 1687.89 1018.08 1688.67C1016.55 1689.97 1017.45 1694.84 1017.23 1696.52C1017.13 1697.3 1017.79 1699.3 1018.64 1699.68C1020.75 1700.83 1021.35 1702.01 1022.23 1704.04C1009.96 1705.99 1012.69 1698.58 1012.27 1689.99C1012.99 1688.6 1007.76 1686.63 1009.39 1685.34C1012.86 1682.57 1011.78 1683.38 1013.21 1678.32Z"/><path fill="#0C090B" d="M924.472 836.267C925.346 836.437 929.355 837.001 929.458 837.673C930.298 843.19 930.003 860.509 929.466 865.422C928.982 865.305 925.002 864.614 924.924 864.031C923.879 856.218 924.11 844.235 924.472 836.267Z"/><path fill="#0C090B" d="M341.459 1676.25C342.59 1676.4 346.232 1676.68 346.41 1677.33C347.521 1681.38 346.799 1701.69 346.533 1704.76C345.643 1704.6 342.322 1704.21 342.16 1703.61C340.827 1698.74 341.404 1680.62 341.459 1676.25Z"/><path fill="#0C090B" d="M332.087 1676.19C333.026 1676.38 336.583 1676.91 336.686 1677.45C337.732 1682.92 337.262 1700.23 337.225 1705.1C336.168 1704.86 332.743 1704.28 332.601 1703.55C331.626 1698.55 332.058 1680.37 332.087 1676.19Z"/><path fill="#0C090B" d="M356.506 843.387C356.833 843.483 357.158 843.585 357.487 843.677C358.548 843.973 359.364 844.115 360.244 844.746C360.692 845.067 361.063 845.567 361.6 845.694C362.041 845.798 362.507 845.635 362.886 845.417C363.983 844.786 365.12 843.768 366.482 844.127C367.022 844.269 367.471 844.617 367.664 845.148C367.975 846.005 368.092 847.564 367.594 848.366C367.276 848.877 366.614 849.061 366.055 849.117C364.943 849.229 363.856 849.158 362.91 849.854C362.059 850.48 361.478 851.637 361.352 852.679C361.304 853.071 361.285 853.467 361.251 853.861C361.244 856.858 361.633 860.583 360.91 863.421C360.477 865.117 356.671 864.434 356.577 863.827C355.717 858.267 355.912 848.899 356.506 843.387Z"/><path fill="#0C090B" d="M365.118 1681.14C365.568 1682.52 365.614 1683.38 366.464 1684.29C366.499 1685.19 366.523 1686.09 366.537 1686.99C366.582 1690 367.115 1702.72 365.797 1703.71C358.357 1709.29 361.442 1685.51 361.629 1683.82C362.045 1682.96 362.461 1682.09 362.878 1681.22C363.605 1681.5 364.415 1681.47 365.118 1681.14Z"/><path fill="#C1C1C0" d="M365.118 1681.14C365.568 1682.52 365.614 1683.38 366.464 1684.29L361.629 1683.82C362.045 1682.96 362.461 1682.09 362.878 1681.22C363.605 1681.5 364.415 1681.47 365.118 1681.14Z"/><path fill="#0C090B" d="M935.447 841.87L938.994 842.288L938.707 844.692C943.302 870.512 930.246 873.453 934.415 844.654L935.447 841.87Z"/><path fill="white" d="M935.447 841.87L938.994 842.288L938.707 844.692L934.415 844.654L935.447 841.87Z"/><path fill="#0C090B" d="M390.804 847.206C392.146 844.407 393.324 844.64 396.376 843.716C396.799 847.744 397.572 859.897 395.967 864.029C395.561 865.075 391.641 864.699 391.551 863.823C390.974 858.227 391.444 852.958 390.804 847.206Z"/><path fill="#0C090B" d="M1700.68 844.029C1700.78 844.057 1705.39 845.148 1705.48 845.624C1706.57 851.421 1706.06 859.14 1706.09 865.171C1705.7 865.093 1701.35 864.507 1701.22 863.748C1700.22 857.818 1700.68 850.172 1700.68 844.029Z"/><path fill="#0C090B" d="M1024.69 1683.24C1024.71 1683.25 1026.55 1683.75 1026.58 1683.74C1026.84 1683.64 1029.18 1684.41 1029.32 1684.8C1030.4 1687.73 1029.85 1702.12 1029.84 1704.7C1029.45 1704.63 1025.36 1704.08 1025.27 1703.58C1024.17 1697.75 1024.69 1689.22 1024.69 1683.24Z"/><path fill="#0C090B" d="M1070.54 843.75C1071.42 843.973 1075.21 844.745 1075.35 845.488C1075.96 848.707 1075.55 861.983 1075.52 864.77C1075.23 864.77 1071.32 864.983 1071.18 864.38C1069.84 858.669 1070.53 849.72 1070.54 843.75Z"/><path fill="#0C090B" d="M935.447 841.87C930.565 835.201 941.342 832.499 938.994 842.288L935.447 841.87Z"/><path fill="#0C090B" d="M392.457 836.516C393.334 835.865 394.501 835.762 395.478 836.25C396.455 836.737 397.075 837.732 397.081 838.824C397.088 839.916 396.48 840.918 395.509 841.417C394.168 842.107 392.522 841.652 391.725 840.372C390.929 839.092 391.247 837.415 392.457 836.516Z"/><path fill="#0C090B" d="M1701.8 836.391C1702.7 835.806 1703.86 835.777 1704.8 836.316C1705.73 836.855 1706.29 837.872 1706.23 838.95C1706.18 840.028 1705.53 840.987 1704.55 841.433C1703.17 842.056 1701.55 841.514 1700.83 840.19C1700.11 838.866 1700.53 837.208 1701.8 836.391Z"/><path fill="#0C090B" d="M1025.31 1676.37C1026.49 1675.39 1028.24 1675.52 1029.26 1676.67C1030.28 1677.83 1030.2 1679.58 1029.08 1680.64C1028.32 1681.35 1027.24 1681.59 1026.25 1681.27C1025.27 1680.95 1024.53 1680.12 1024.33 1679.1C1024.14 1678.08 1024.51 1677.04 1025.31 1676.37Z"/><path fill="#0C090B" d="M362.878 1681.22C361.62 1680.74 360.876 1679.44 361.097 1678.11C361.318 1676.78 362.442 1675.79 363.788 1675.74C365.134 1675.69 366.332 1676.59 366.654 1677.9C366.976 1679.2 366.335 1680.56 365.118 1681.14C364.415 1681.47 363.605 1681.5 362.878 1681.22Z"/><path fill="#0C090B" d="M1071.62 836.433C1072.58 835.85 1073.8 835.901 1074.71 836.561C1075.62 837.222 1076.05 838.365 1075.8 839.463C1075.54 840.56 1074.66 841.399 1073.55 841.592C1072.22 841.823 1070.92 841.076 1070.44 839.814C1069.97 838.551 1070.46 837.131 1071.62 836.433Z"/><path fill="white" d="M384.837 844.584C388.295 843.195 392.639 843.555 396.376 843.716C393.324 844.64 392.146 844.407 390.804 847.206L387.94 848.01C387.365 845.352 387.609 845.267 384.837 844.584Z"/></svg>